<?xml version="1.0" encoding="utf-8"?>
<svg xmlns="http://www.w3.org/2000/svg" viewBox="0 0 30 30" fill="#FFFFFF"><path d="M 2 2 A 1.0001 1.0001 0 1 0 2 4 C 3.1166661 4 4 4.8833339 4 6 L 4 27 A 1.0001 1.0001 0 1 0 6 27 L 6 23 L 9.9863281 23 A 1.0001 1.0001 0 0 0 11 24 L 22 24 A 1.0001 1.0001 0 0 0 23.013672 23 L 26 23 C 27.105 23 28 22.105 28 21 L 28 9 C 28 7.895 27.105 7 26 7 L 6 7 L 6 6 C 6 3.8026661 4.1973339 2 2 2 z M 8 10 L 11 10 C 11.552 10 12 10.448 12 11 C 12 11.552 11.552 12 11 12 L 8 12 C 7.448 12 7 11.552 7 11 C 7 10.448 7.448 10 8 10 z M 19 10 C 21.761 10 24 12.239 24 15 C 24 17.761 21.761 20 19 20 C 16.239 20 14 17.761 14 15 C 14 12.239 16.239 10 19 10 z M 8 14 L 11 14 C 11.552 14 12 14.448 12 15 C 12 15.552 11.552 16 11 16 L 8 16 C 7.448 16 7 15.552 7 15 C 7 14.448 7.448 14 8 14 z M 8 18 L 11 18 C 11.552 18 12 18.448 12 19 C 12 19.552 11.552 20 11 20 L 8 20 C 7.448 20 7 19.552 7 19 C 7 18.448 7.448 18 8 18 z" fill="#FFFFFF"/></svg>
