<?xml version="1.0" encoding="utf-8"?>
<svg xmlns="http://www.w3.org/2000/svg" viewBox="0 0 50 50" fill="currentColor"><path d="M 25.037109 3 A 1.0001 1.0001 0 0 0 24.576172 3.09375 L 9.6972656 10.037109 A 1.0001 1.0001 0 0 0 9 11.140625 L 9 12.060547 C 6.810531 12.060514 5 13.851904 5 16.052734 L 5 28 C 5 29.492222 4.971214 30.467798 5.1113281 31.347656 C 5.2514426 32.227515 5.6416929 33.001322 6.265625 33.677734 L 6.2109375 33.615234 C 6.2109375 33.615234 11.739969 40.71043 13 42.34375 L 13 45.140625 C 13 45.880703 13.509154 46.563206 13.994141 46.794922 C 14.479126 47.026638 14.9 47 15 47 L 22 47 C 22.69 47 23.38702 46.720034 23.71875 46.199219 C 24.05048 45.678403 24 45.215 24 45 L 24 40 C 24 39.93625 23.996198 39.82221 23.986328 39.701172 C 23.956777 38.381793 23.653743 37.21495 23.25 36.115234 L 24.347656 36.773438 A 1.0001 1.0001 0 0 0 24.957031 37.005859 A 1.0001 1.0001 0 0 0 25.023438 37.005859 A 1.0001 1.0001 0 0 0 25.072266 37.003906 A 1.0001 1.0001 0 0 0 25.652344 36.773438 L 26.75 36.115234 C 26.346257 37.21495 26.043221 38.381793 26.013672 39.701172 C 26.003781 39.82221 26 39.936253 26 40 L 26 45 C 26 45.215 25.94952 45.678403 26.28125 46.199219 C 26.61298 46.720034 27.31 47 28 47 L 35 47 C 35.1 47 35.520873 47.02664 36.005859 46.794922 C 36.490846 46.563206 37 45.880703 37 45.140625 L 37 42.34375 C 38.260031 40.71043 43.789063 33.615234 43.789062 33.615234 L 43.734375 33.677734 C 44.358307 33.001322 44.748557 32.227515 44.888672 31.347656 C 45.028789 30.467798 45 29.492222 45 28 L 45 16.052734 C 45 13.851904 43.189469 12.060514 41 12.060547 L 41 11.144531 A 1.0001 1.0001 0 0 0 41.007812 11.087891 A 1.0001 1.0001 0 0 0 41.011719 10.988281 A 1.0001 1.0001 0 0 0 41.007812 10.888672 A 1.0001 1.0001 0 0 0 40.992188 10.789062 A 1.0001 1.0001 0 0 0 40.835938 10.423828 A 1.0001 1.0001 0 0 0 40.773438 10.345703 A 1.0001 1.0001 0 0 0 40.548828 10.148438 A 1.0001 1.0001 0 0 0 40.460938 10.099609 A 1.0001 1.0001 0 0 0 40.371094 10.058594 A 1.0001 1.0001 0 0 0 40.304688 10.039062 L 25.423828 3.09375 A 1.0001 1.0001 0 0 0 25.037109 3 z M 25 5.1035156 L 37.763672 11.058594 L 25 17.865234 L 12.236328 11.058594 L 25 5.1035156 z M 11 12.666016 L 24 19.599609 L 24 34.234375 L 21.25 32.583984 A 1.0001 1.0001 0 0 0 21.041016 32.488281 C 20.601839 31.939703 20.244862 31.282427 19.771484 30.806641 L 15.34375 26.048828 C 14.208998 24.829837 12.430063 24.709682 11 25.480469 L 11 13.150391 L 11 12.666016 z M 39 12.667969 L 39 13.150391 L 39 25.480469 C 37.569937 24.709682 35.791002 24.829837 34.65625 26.048828 L 30.230469 30.804688 L 30.228516 30.806641 C 29.755488 31.282076 29.397876 31.938212 28.958984 32.486328 A 1.0001 1.0001 0 0 0 28.75 32.583984 L 26 34.234375 L 26 19.599609 L 39 12.667969 z M 9 14.070312 L 9 23 L 9 27 L 9 28 A 1.0001 1.0001 0 0 0 9.1171875 28.482422 C 9.1060355 29.257662 9.2798116 30.042082 9.7773438 30.705078 L 14.199219 36.599609 A 1.0003905 1.0003905 0 1 0 15.800781 35.400391 L 11.378906 29.503906 A 1.0001 1.0001 0 0 0 11.376953 29.503906 C 10.82939 28.774241 10.974882 27.770618 11.705078 27.222656 L 11.707031 27.21875 C 12.380712 26.71349 13.305518 26.796155 13.878906 27.412109 L 18.328125 32.191406 A 1.0001 1.0001 0 0 0 18.351562 32.214844 C 20.319412 34.192246 21.926705 36.547666 21.990234 39.769531 A 1.0001 1.0001 0 0 0 21.998047 39.875 C 21.996608 39.863397 22 39.92 22 40 L 22 45 L 15 45 L 15 42 A 1.0001 1.0001 0 0 0 14.792969 41.390625 C 13.747323 40.030271 7.7890625 32.384766 7.7890625 32.384766 A 1.0001 1.0001 0 0 0 7.734375 32.322266 C 7.2883066 31.838678 7.178323 31.613344 7.0859375 31.033203 C 6.993552 30.453062 7 29.507778 7 28 L 7 16.052734 C 7 14.935182 7.8914424 14.071464 9 14.070312 z M 41 14.070312 C 42.108558 14.071513 43 14.935182 43 16.052734 L 43 28 C 43 29.507778 43.006403 30.453062 42.914062 31.033203 C 42.821672 31.613344 42.711693 31.838678 42.265625 32.322266 A 1.0001 1.0001 0 0 0 42.210938 32.384766 C 42.210938 32.384766 36.252677 40.030271 35.207031 41.390625 A 1.0001 1.0001 0 0 0 35 42 L 35 45 L 28 45 L 28 40 C 28 39.92 28.003353 39.863405 28.001953 39.875 A 1.0001 1.0001 0 0 0 28.009766 39.769531 C 28.073296 36.547666 29.680588 34.192246 31.648438 32.214844 A 1.0001 1.0001 0 0 0 31.671875 32.191406 L 36.121094 27.412109 C 36.694482 26.796155 37.619288 26.71349 38.292969 27.21875 L 38.294922 27.222656 C 39.025118 27.770618 39.17061 28.774241 38.623047 29.503906 A 1.0001 1.0001 0 0 0 38.621094 29.503906 L 34.199219 35.400391 A 1.0003905 1.0003905 0 0 0 35.800781 36.599609 L 40.222656 30.705078 L 40.222656 30.703125 C 40.719432 30.040441 40.893957 29.25709 40.882812 28.482422 A 1.0001 1.0001 0 0 0 41 28 L 41 27 L 41 14.070312 z" fill="currentColor"/></svg>
