<?xml version="1.0" encoding="utf-8"?>
<svg xmlns="http://www.w3.org/2000/svg" viewBox="0 0 30 30" fill="#FFFFFF"><path d="M 9 1 A 1 1 0 0 0 8 2 A 1 1 0 0 0 9 3 A 1 1 0 0 0 10 2 A 1 1 0 0 0 9 1 z M 13 1 A 1 1 0 0 0 12 2 A 1 1 0 0 0 13 3 A 1 1 0 0 0 14 2 A 1 1 0 0 0 13 1 z M 17 1 A 1 1 0 0 0 16 2 A 1 1 0 0 0 17 3 A 1 1 0 0 0 18 2 A 1 1 0 0 0 17 1 z M 21 1 A 1 1 0 0 0 20 2 A 1 1 0 0 0 21 3 A 1 1 0 0 0 22 2 A 1 1 0 0 0 21 1 z M 7 5 C 5.895 5 5 5.895 5 7 L 5 23 C 5 24.105 5.895 25 7 25 L 23 25 C 24.105 25 25 24.105 25 23 L 25 7 C 25 5.895 24.105 5 23 5 L 7 5 z M 2 8 A 1 1 0 0 0 1 9 A 1 1 0 0 0 2 10 A 1 1 0 0 0 3 9 A 1 1 0 0 0 2 8 z M 9.5 8 C 10.328 8 11 8.672 11 9.5 C 11 10.328 10.328 11 9.5 11 C 8.672 11 8 10.328 8 9.5 C 8 8.672 8.672 8 9.5 8 z M 28 8 A 1 1 0 0 0 27 9 A 1 1 0 0 0 28 10 A 1 1 0 0 0 29 9 A 1 1 0 0 0 28 8 z M 2 12 A 1 1 0 0 0 1 13 A 1 1 0 0 0 2 14 A 1 1 0 0 0 3 13 A 1 1 0 0 0 2 12 z M 28 12 A 1 1 0 0 0 27 13 A 1 1 0 0 0 28 14 A 1 1 0 0 0 29 13 A 1 1 0 0 0 28 12 z M 2 16 A 1 1 0 0 0 1 17 A 1 1 0 0 0 2 18 A 1 1 0 0 0 3 17 A 1 1 0 0 0 2 16 z M 28 16 A 1 1 0 0 0 27 17 A 1 1 0 0 0 28 18 A 1 1 0 0 0 29 17 A 1 1 0 0 0 28 16 z M 20.5 19 C 21.328 19 22 19.672 22 20.5 C 22 21.328 21.328 22 20.5 22 C 19.672 22 19 21.328 19 20.5 C 19 19.672 19.672 19 20.5 19 z M 2 20 A 1 1 0 0 0 1 21 A 1 1 0 0 0 2 22 A 1 1 0 0 0 3 21 A 1 1 0 0 0 2 20 z M 28 20 A 1 1 0 0 0 27 21 A 1 1 0 0 0 28 22 A 1 1 0 0 0 29 21 A 1 1 0 0 0 28 20 z M 9 27 A 1 1 0 0 0 8 28 A 1 1 0 0 0 9 29 A 1 1 0 0 0 10 28 A 1 1 0 0 0 9 27 z M 13 27 A 1 1 0 0 0 12 28 A 1 1 0 0 0 13 29 A 1 1 0 0 0 14 28 A 1 1 0 0 0 13 27 z M 17 27 A 1 1 0 0 0 16 28 A 1 1 0 0 0 17 29 A 1 1 0 0 0 18 28 A 1 1 0 0 0 17 27 z M 21 27 A 1 1 0 0 0 20 28 A 1 1 0 0 0 21 29 A 1 1 0 0 0 22 28 A 1 1 0 0 0 21 27 z" fill="#FFFFFF"/></svg>
